<?xml version="1.0" encoding="utf-8" ?>
<svg xmlns="http://www.w3.org/2000/svg" xmlns:xlink="http://www.w3.org/1999/xlink" width="1030" height="1030">
	<path fill="#77C5F9" transform="scale(2.01355 2.01355)" d="M133.604 107.171C138.308 102.458 144.716 98.5205 150.329 94.9301C219.953 50.3969 312.434 54.6989 377.011 106.867C377.289 107.091 377.244 107.023 377.686 107.171L133.604 107.171Z"/>
	<path fill="#796F81" transform="scale(2.01355 2.01355)" d="M133.604 107.171L377.686 107.171L402.089 107.163C422.045 107.141 434.886 106.751 434.801 132.752L434.767 146.97C434.759 163.494 434.956 180.036 434.784 196.557L434.766 197.96C434.171 199.334 434.771 214.998 434.769 217.405C434.75 238.155 428.938 242.716 409.517 242.71L348.889 242.702C349.246 245.927 349.652 249.202 349.705 252.447C349.454 255.416 349.504 258.302 349.705 261.271C347.234 261.295 339.205 261.924 337.26 260.777C334.079 260.888 330.905 261.177 327.725 261.271L318.743 261.271L318.743 261.271C315.297 260.813 310.711 260.693 307.282 261.271C306.356 261.604 305.425 261.391 304.472 261.271C299.99 261.534 295.442 261.286 290.95 261.28L264.782 261.271C260.482 261.425 256.157 261.281 251.853 261.278L208.583 261.271C206.029 261.269 199.944 262.076 197.849 260.777C194.967 260.874 192.108 260.849 189.226 260.777L182.504 260.777C179.651 260.873 176.799 260.814 173.946 260.777L173.946 260.777C171.682 260.909 169.339 260.823 167.072 260.777C165.663 261.807 157.215 261.15 155.263 260.777C155.265 255.082 154.364 247.791 157.176 242.702C152.229 242.46 147.171 242.698 142.211 242.703L112.211 242.711C98.6594 242.707 80.2339 244.421 77.3863 225.931C76.762 221.877 77.6842 200.464 77.2133 199.55C77.5188 197.717 77.2301 195.53 77.2229 193.655L77.1567 129.461C77.1083 107.175 93.3937 107.138 110.334 107.162C118.09 107.173 125.849 107.084 133.604 107.171Z"/>
	<path fill="#F8BC30" transform="scale(2.01355 2.01355)" d="M330.519 232.698C334.684 227.586 338.176 223.668 345.122 222.905C346.894 222.711 352.696 221.987 349.568 225.544C342.8 227.228 338.361 225.74 333.711 233.49C329.434 240.385 334.619 247.736 327.725 247.487C327.839 243.611 329.319 236.374 330.519 232.698Z"/>
	<path fill="#F8BC30" transform="scale(2.01355 2.01355)" d="M346.607 205.245C354.67 204.899 355.881 214.951 348.889 217.826C340.127 217.923 339.203 208.187 346.607 205.245Z"/>
	<path fill="#F79A3A" transform="scale(2.01355 2.01355)" d="M374.043 217.826C382.265 217.485 384.578 227.28 376.775 230.388C368.205 230.309 366.253 220.677 374.043 217.826Z"/>
	<path fill="#FEFEFE" transform="scale(2.01355 2.01355)" d="M104.839 184.201C109.198 184.128 131.991 183.603 134.338 185.003C135.956 185.968 136.433 187.996 136.864 189.69C136.153 192.39 134.863 193.877 132.249 195.037C128.189 195.318 106.718 195.38 103.94 194.471C98.7739 192.78 99.0409 186.47 104.839 184.201Z"/>
	<path fill="#F79A3A" transform="scale(2.01355 2.01355)" d="M318.743 232.698C322.833 232.796 326.413 233.298 330.519 232.698C329.319 236.374 327.839 243.611 327.725 247.487C334.619 247.736 329.434 240.385 333.711 233.49C336.126 233.671 338.538 233.921 340.885 234.539C344.215 236.81 346.429 239.559 348.889 242.702C349.246 245.927 349.652 249.202 349.705 252.447C349.454 255.416 349.504 258.302 349.705 261.271C347.234 261.295 339.205 261.924 337.26 260.777C334.079 260.888 330.905 261.177 327.725 261.271L327.725 247.487L327.725 247.487C327.291 241.306 322.836 236.852 318.743 232.698Z"/>
	<path fill="#91493C" transform="scale(2.01355 2.01355)" d="M327.725 247.487C331.684 247.516 337.699 246.475 340.727 249.467C344.763 253.454 342.075 259.325 337.26 260.777C334.079 260.888 330.905 261.177 327.725 261.271L327.725 247.487Z"/>
	<path fill="#F79A3A" transform="scale(2.01355 2.01355)" d="M106.727 161.526L137.158 161.522C145.222 161.513 156.991 158.453 159.387 167.014C158.461 170.055 156.847 171.841 153.532 172.191C147.57 172.288 105.735 173.263 102.81 170.988C98.0333 167.273 101.239 162.086 106.727 161.526Z"/>
	<path fill="#FEFEFE" transform="scale(2.01355 2.01355)" d="M112.16 137.805L139.93 137.792C144.574 137.78 149.645 137.347 154.222 137.887C159.048 138.458 166.111 149.261 148.562 148.984L119.475 148.968C114.913 148.973 109.804 149.469 105.299 148.852C100.778 148.233 98.3485 143.134 101.88 139.588C104.246 137.212 109.013 137.848 112.16 137.805Z"/>
	<path fill="#FEFEFE" transform="scale(2.01355 2.01355)" d="M191.122 165.705C191.029 167.659 192.786 171.958 195.102 172.304C196.562 171.719 196.5 170.257 197.555 169.236L197.849 169.435C194.497 174.784 190.013 178.717 191.627 185.668C197.457 210.781 217.123 211.015 237.059 211.003L270.282 210.991L270.467 211.451C269.475 213.115 267.313 214.509 265.789 215.711C252.163 226.448 229.761 235.985 212.281 230.861L210.649 230.388C216.138 234.255 221.863 236.716 228.035 239.251C220.804 239 213.506 239.258 206.268 239.245C194.891 239.225 189.312 236.543 182.504 247.487C182.118 251.837 182.536 256.398 182.504 260.777C179.651 260.873 176.799 260.814 173.946 260.777L173.946 260.777C171.682 260.909 169.339 260.823 167.072 260.777C165.663 261.807 157.215 261.15 155.263 260.777C155.265 255.082 154.364 247.791 157.176 242.702C160.086 238.067 163.525 234.661 169.093 233.49C172.611 233.473 179.323 233.003 182.504 233.49C184.876 232.836 186.981 231.427 189.346 230.773C192.608 229.872 205.835 230.032 209.93 230.388C191.509 213.39 182.138 190.718 191.122 165.705Z"/>
	<path fill="#F79A3A" transform="scale(2.01355 2.01355)" d="M169.093 233.49C172.611 233.473 179.323 233.003 182.504 233.49C178.192 237.716 174.852 241.299 173.946 247.487C173.332 251.882 173.025 256.394 173.946 260.777C171.682 260.909 169.339 260.823 167.072 260.777C165.663 261.807 157.215 261.15 155.263 260.777C155.265 255.082 154.364 247.791 157.176 242.702C160.086 238.067 163.525 234.661 169.093 233.49Z"/>
	<path fill="#91493C" transform="scale(2.01355 2.01355)" d="M167.072 260.777C158.325 257.089 162.204 246.207 173.946 247.487C173.332 251.882 173.025 256.394 173.946 260.777C171.682 260.909 169.339 260.823 167.072 260.777Z"/>
	<path fill="#F79A3A" transform="scale(2.01355 2.01355)" d="M290 230.388L303.584 230.378C312.285 230.4 311.211 231.039 318.743 232.698C322.836 236.852 327.291 241.306 327.725 247.487L327.725 247.487L327.725 261.271L318.743 261.271L318.743 261.271C315.297 260.813 310.711 260.693 307.282 261.271C306.356 261.604 305.425 261.391 304.472 261.271C299.99 261.534 295.442 261.286 290.95 261.28L264.782 261.271C260.482 261.425 256.157 261.281 251.853 261.278L208.583 261.271C206.029 261.269 199.944 262.076 197.849 260.777C194.967 260.874 192.108 260.849 189.226 260.777L182.504 260.777C182.536 256.398 182.118 251.837 182.504 247.487C189.312 236.543 194.891 239.225 206.268 239.245C213.506 239.258 220.804 239 228.035 239.251C242.936 239.576 257.972 239.425 272.874 239.251C278.975 237.649 284.882 233.997 290 230.388Z"/>
	<path fill="#91493C" transform="scale(2.01355 2.01355)" d="M307.282 261.271C301.998 260.427 297.905 253.781 302.37 249.455C305.365 246.552 314.538 247.475 318.743 247.487C318.985 252.059 318.718 256.69 318.743 261.271L318.743 261.271C315.297 260.813 310.711 260.693 307.282 261.271Z"/>
	<path fill="#91493C" transform="scale(2.01355 2.01355)" d="M182.504 247.487C187.017 247.422 196.792 246.27 200.12 249.378C203.792 252.807 201.525 258.381 197.849 260.777C194.967 260.874 192.108 260.849 189.226 260.777L182.504 260.777C182.536 256.398 182.118 251.837 182.504 247.487Z"/>
	<path fill="#FEFEFE" transform="scale(2.01355 2.01355)" d="M290 230.388L303.584 230.378C312.285 230.4 311.211 231.039 318.743 232.698C322.836 236.852 327.291 241.306 327.725 247.487L327.725 247.487L327.725 261.271L318.743 261.271C318.718 256.69 318.985 252.059 318.743 247.487C315.305 237.225 304.927 239.246 296.312 239.24L272.874 239.251C278.975 237.649 284.882 233.997 290 230.388Z"/>
	<path fill="#7473ED" transform="scale(2.01355 2.01355)" d="M357.499 144.185C362.096 139.789 370.353 138.182 376.531 138.322C422.366 139.363 422.41 212.298 373.588 210.529C361.03 210.074 357.986 206.52 349.705 199.55C347.27 196.188 344.632 192.906 342.871 189.123C335.664 173.643 341.155 151.534 357.499 144.185Z"/>
	<path fill="#FEFEFE" transform="scale(2.01355 2.01355)" d="M372.896 178.253C376.37 175.193 388.619 157.119 392.233 168.581C392.317 173.187 375.365 188.305 372.847 188.436C370.233 188.573 363.849 181.219 361.487 179.376C359.034 176.482 357.748 170.972 363.397 170.975C366.847 170.977 370.498 175.909 372.896 178.253Z"/>
	<path fill="#6056E7" transform="scale(2.01355 2.01355)" d="M392.233 168.581C393.16 168.581 393.653 168.753 394.32 169.417C401.728 176.791 398.092 186.507 391.065 192.816C386.706 196.73 380.95 198.459 375.306 199.55C369.502 194.534 363.607 188.06 359.014 181.908C359.763 180.905 360.371 180.008 361.487 179.376C363.849 181.219 370.233 188.573 372.847 188.436C375.365 188.305 392.317 173.187 392.233 168.581Z"/>
	<path fill="#8DA2EF" transform="scale(2.01355 2.01355)" d="M357.499 144.185C359.288 144.317 360.86 143.605 362.571 143.221C381.496 138.971 382.166 146.892 380.185 148.33C375.924 151.425 358.013 145.823 352.554 168.561C349.994 179.224 353.985 184.527 357.499 193.955C355.37 196.567 352.276 197.48 349.705 199.55C347.27 196.188 344.632 192.906 342.871 189.123C335.664 173.643 341.155 151.534 357.499 144.185Z"/>
	<defs>
		<linearGradient id="gradient_0" gradientUnits="userSpaceOnUse" x1="274.33038" y1="238.14125" x2="237.01111" y2="124.7589">
			<stop offset="0" stop-color="#96C2F5"/>
			<stop offset="1" stop-color="#D6EFFA"/>
		</linearGradient>
	</defs>
	<path fill="url(#gradient_0)" transform="scale(2.01355 2.01355)" d="M191.122 165.705C200.898 132.911 239.64 116.151 271.58 125.952C318.869 140.463 327.221 199.037 290 230.388C284.882 233.997 278.975 237.649 272.874 239.251C257.972 239.425 242.936 239.576 228.035 239.251C221.863 236.716 216.138 234.255 210.649 230.388L212.281 230.861C229.761 235.985 252.163 226.448 265.789 215.711C267.313 214.509 269.475 213.115 270.467 211.451L270.282 210.991C282.397 212.759 295.602 210.007 303.407 199.931C308.292 193.625 313.18 182.254 308.74 174.565C306.116 170.018 296.508 158.437 292.38 155.33C278.495 144.877 266.523 162.695 253.285 163.902C230.943 165.941 226.296 131.867 197.849 169.435L197.555 169.236C196.5 170.257 196.562 171.719 195.102 172.304C192.786 171.958 191.029 167.659 191.122 165.705Z"/>
	<path fill="#FEFEFE" transform="scale(2.01355 2.01355)" d="M238.686 134.585C241.481 134.305 243 137.173 241.647 139.62C240.381 141.91 232.834 143.41 230.193 144.185C227.482 144.375 225.822 142.216 227.271 139.845C229.278 136.563 235.185 135.436 238.686 134.585Z"/>
	<path fill="#2F3053" transform="scale(2.01355 2.01355)" d="M197.849 169.435C226.296 131.867 230.943 165.941 253.285 163.902C266.523 162.695 278.495 144.877 292.38 155.33C296.508 158.437 306.116 170.018 308.74 174.565C313.18 182.254 308.292 193.625 303.407 199.931C295.602 210.007 282.397 212.759 270.282 210.991L237.059 211.003C217.123 211.015 197.457 210.781 191.627 185.668C190.013 178.717 194.497 174.784 197.849 169.435Z"/>
	<path fill="#35C9B4" transform="scale(2.01355 2.01355)" d="M210.649 187.91C211.481 188.738 212.152 189.822 213.008 190.589C214.483 191.914 215.961 193.038 217.729 193.955C215.961 195.305 212.783 196.303 210.649 197.002C207.33 194.482 205.524 191.812 204.107 187.91C206.292 187.835 208.465 187.866 210.649 187.91Z"/>
	<path fill="#61DBCC" transform="scale(2.01355 2.01355)" d="M272.874 197.96C255.54 186.551 266.365 159.803 286.485 164.549C285.82 166.563 285.272 168.563 284.801 170.631C282.546 170.122 280.532 170.122 278.275 170.631C272.719 168.52 267.967 174.076 271.039 179.376C267.516 184.408 273.294 191.651 278.275 193.955C277.228 195.542 274.773 197.591 272.874 197.96Z"/>
	<path fill="#26B8A2" transform="scale(2.01355 2.01355)" d="M286.485 164.549C314.595 176.327 291.971 212.074 272.874 197.96C274.773 197.591 277.228 195.542 278.275 193.955C291.036 200.399 300.375 177.579 284.801 170.631C285.272 168.563 285.82 166.563 286.485 164.549Z"/>
	<defs>
		<linearGradient id="gradient_1" gradientUnits="userSpaceOnUse" x1="290.86215" y1="189.45993" x2="273.87073" y2="176.29491">
			<stop offset="0" stop-color="#20593E"/>
			<stop offset="1" stop-color="#1B7D5A"/>
		</linearGradient>
	</defs>
	<path fill="url(#gradient_1)" transform="scale(2.01355 2.01355)" d="M271.039 179.376C267.967 174.076 272.719 168.52 278.275 170.631C280.532 170.122 282.546 170.122 284.801 170.631C300.375 177.579 291.036 200.399 278.275 193.955C273.294 191.651 267.516 184.408 271.039 179.376Z"/>
	<path fill="#1E8764" transform="scale(2.01355 2.01355)" d="M286.485 178.253C287.471 181.559 283.136 188.028 279.739 187.91C282.526 185.126 284.438 181.587 286.485 178.253Z"/>
	<path fill="#26B8A2" transform="scale(2.01355 2.01355)" d="M279.739 187.91C278.86 188.584 275.387 190.278 276.361 187.711C276.615 187.04 285.911 174.03 286.485 178.253C284.438 181.587 282.526 185.126 279.739 187.91Z"/>
	<path fill="#FEFEFE" transform="scale(2.01355 2.01355)" d="M271.039 179.376C267.967 174.076 272.719 168.52 278.275 170.631C285.217 177.532 277.382 185.008 271.039 179.376Z"/>
	<path fill="#26B8A2" transform="scale(2.01355 2.01355)" d="M235.657 170.631C248.985 188.102 227.001 209.739 210.649 197.002C212.783 196.303 215.961 195.305 217.729 193.955C215.961 193.038 214.483 191.914 213.008 190.589C215.084 189.611 217.297 188.505 218.792 186.716C217.9 183.857 224.249 180.355 225.755 178.253L226.904 178.253C227.578 176.465 228.236 174.895 230.193 174.184L230.193 174.915C232.297 174.499 235.046 172.7 235.657 170.631Z"/>
	<path fill="#176743" transform="scale(2.01355 2.01355)" d="M226.904 178.253C227.578 176.465 228.236 174.895 230.193 174.184L230.193 174.915C239.33 182.952 229.057 197.506 217.729 193.955C215.961 193.038 214.483 191.914 213.008 190.589C215.084 189.611 217.297 188.505 218.792 186.716C217.9 183.857 224.249 180.355 225.755 178.253L226.904 178.253Z"/>
	<path fill="#35C9B4" transform="scale(2.01355 2.01355)" d="M225.755 178.253L226.904 178.253C224.191 182.527 223.344 184.028 218.792 186.716C217.9 183.857 224.249 180.355 225.755 178.253Z"/>
	<path fill="#61DBCC" transform="scale(2.01355 2.01355)" d="M204.107 187.91C197.263 168.48 223.271 154.433 235.657 170.631C235.046 172.7 232.297 174.499 230.193 174.915L230.193 174.184C228.236 174.895 227.578 176.465 226.904 178.253L225.755 178.253C224.249 180.355 217.9 183.857 218.792 186.716C217.297 188.505 215.084 189.611 213.008 190.589C212.152 189.822 211.481 188.738 210.649 187.91C208.465 187.866 206.292 187.835 204.107 187.91Z"/>
	<path fill="#1E8764" transform="scale(2.01355 2.01355)" d="M217.729 170.631C222.514 169.941 227.033 170.084 230.193 174.184C228.236 174.895 227.578 176.465 226.904 178.253L225.755 178.253C223.332 177.896 223.334 175.88 221.36 174.915C219.728 172.827 220.456 172.224 217.729 170.631Z"/>
	<path fill="#1F9770" transform="scale(2.01355 2.01355)" d="M210.649 174.915L210.775 174.676C212.291 171.727 214.249 169.891 217.729 170.631C220.456 172.224 219.728 172.827 221.36 174.915C223.334 175.88 223.332 177.896 225.755 178.253C224.249 180.355 217.9 183.857 218.792 186.716C217.297 188.505 215.084 189.611 213.008 190.589C212.152 189.822 211.481 188.738 210.649 187.91C209.428 184.268 209.052 178.479 210.649 174.915Z"/>
	<path fill="#FEFEFE" transform="scale(2.01355 2.01355)" d="M210.649 174.915L210.775 174.676C212.291 171.727 214.249 169.891 217.729 170.631C220.456 172.224 219.728 172.827 221.36 174.915C219.448 183.031 211.587 182.932 210.649 174.915Z"/>
	<path fill="#665363" transform="scale(2.01355 2.01355)" d="M133.604 107.171L377.686 107.171L402.089 107.163C422.045 107.141 434.886 106.751 434.801 132.752L434.767 146.97C434.759 163.494 434.956 180.036 434.784 196.557L434.766 197.96C434.171 199.334 434.771 214.998 434.769 217.405C434.75 238.155 428.938 242.716 409.517 242.71L348.889 242.702C346.429 239.559 344.215 236.81 340.885 234.539L386.879 234.537C393.54 234.533 412.686 235.781 418.529 233.247C427.9 229.183 425.343 215.337 425.318 207.149L425.326 147.801C425.337 140.128 427.999 121.096 418.869 118.369C414.679 117.118 396.229 117.763 390.757 117.766L125.931 117.762C117.4 117.759 108.838 117.586 100.311 117.763C83.0828 118.121 86.5561 131.611 86.5702 144.176L86.5723 203.512C86.5738 209.348 86.2847 215.374 86.8043 221.188C88.0384 234.999 100.47 232.718 110.619 232.711L146.659 232.693C153.993 232.691 161.906 231.753 169.093 233.49C163.525 234.661 160.086 238.067 157.176 242.702C152.229 242.46 147.171 242.698 142.211 242.703L112.211 242.711C98.6594 242.707 80.2339 244.421 77.3863 225.931C76.762 221.877 77.6842 200.464 77.2133 199.55C77.5188 197.717 77.2301 195.53 77.2229 193.655L77.1567 129.461C77.1083 107.175 93.3937 107.138 110.334 107.162C118.09 107.173 125.849 107.084 133.604 107.171Z"/>
	<path fill="#77C5F9" transform="scale(2.01355 2.01355)" d="M348.889 242.702L409.517 242.71C428.938 242.716 434.75 238.155 434.769 217.405C434.771 214.998 434.171 199.334 434.766 197.96C437.562 203.402 438.766 209.206 440.195 215.106C455.398 277.888 434.384 347.646 387.062 391.548C301.011 471.383 160.352 455.353 96.4652 356.219C71.8755 318.063 63.3162 271.931 70.2377 227.181C71.139 221.353 73.6099 204.049 77.2133 199.55C77.6842 200.464 76.762 221.877 77.3863 225.931C80.2339 244.421 98.6594 242.707 112.211 242.711L142.211 242.703C147.171 242.698 152.229 242.46 157.176 242.702C154.364 247.791 155.265 255.082 155.263 260.777C157.215 261.15 165.663 261.807 167.072 260.777C169.339 260.823 171.682 260.909 173.946 260.777L173.946 260.777C176.799 260.814 179.651 260.873 182.504 260.777L189.226 260.777C192.108 260.849 194.967 260.874 197.849 260.777C199.944 262.076 206.029 261.269 208.583 261.271L251.853 261.278C256.157 261.281 260.482 261.425 264.782 261.271L290.95 261.28C295.442 261.286 299.99 261.534 304.472 261.271C305.425 261.391 306.356 261.604 307.282 261.271C310.711 260.693 315.297 260.813 318.743 261.271L318.743 261.271L327.725 261.271C330.905 261.177 334.079 260.888 337.26 260.777C339.205 261.924 347.234 261.295 349.705 261.271C349.504 258.302 349.454 255.416 349.705 252.447C349.652 249.202 349.246 245.927 348.889 242.702ZM349.705 252.447C349.454 255.416 349.504 258.302 349.705 261.271C347.234 261.295 339.205 261.924 337.26 260.777C334.079 260.888 330.905 261.177 327.725 261.271L318.743 261.271L318.743 261.271C315.297 260.813 310.711 260.693 307.282 261.271C306.356 261.604 305.425 261.391 304.472 261.271C299.99 261.534 295.442 261.286 290.95 261.28L264.782 261.271C260.482 261.425 256.157 261.281 251.853 261.278L208.583 261.271C206.029 261.269 199.944 262.076 197.849 260.777C194.967 260.874 192.108 260.849 189.226 260.777L182.504 260.777C179.651 260.873 176.799 260.814 173.946 260.777L173.946 260.777C171.682 260.909 169.339 260.823 167.072 260.777C165.663 261.807 157.215 261.15 155.263 260.777L155.263 362.639C155.189 387.527 150.707 397.477 181.526 397.485L298.72 397.47L327.447 397.478C348.2 397.508 349.734 398.384 349.718 374.894L349.705 345.487C353.808 345.966 362.583 347.096 363.957 341.596C364.724 338.529 364.968 311.353 364.379 308.228C364.028 306.364 362.465 304.86 361.487 303.284C358.977 302.894 355.924 303.233 353.379 303.284L353.379 294.979C353.945 293.741 353.988 292.108 353.379 290.88C352.205 290.846 350.904 290.203 349.705 289.989C349.393 277.509 349.742 264.937 349.705 252.447Z"/>
	<path fill="#2F3053" transform="scale(2.01355 2.01355)" d="M353.379 290.88C355.134 289.332 358.482 290.07 359.936 291.742C362.274 294.434 361.504 299.968 361.487 303.284C358.977 302.894 355.924 303.233 353.379 303.284L353.379 294.979C353.945 293.741 353.988 292.108 353.379 290.88Z"/>
	<path fill="#C77737" transform="scale(2.01355 2.01355)" d="M349.705 252.447C349.742 264.937 349.393 277.509 349.705 289.989C350.904 290.203 352.205 290.846 353.379 290.88C353.988 292.108 353.945 293.741 353.379 294.979L353.379 303.284C355.924 303.233 358.977 302.894 361.487 303.284C362.465 304.86 364.028 306.364 364.379 308.228C364.968 311.353 364.724 338.529 363.957 341.596C362.583 347.096 353.808 345.966 349.705 345.487L349.718 374.894C349.734 398.384 348.2 397.508 327.447 397.478L298.72 397.47L181.526 397.485C150.707 397.477 155.189 387.527 155.263 362.639L155.263 260.777C157.215 261.15 165.663 261.807 167.072 260.777C169.339 260.823 171.682 260.909 173.946 260.777L173.946 260.777C176.799 260.814 179.651 260.873 182.504 260.777L189.226 260.777C192.108 260.849 194.967 260.874 197.849 260.777C199.944 262.076 206.029 261.269 208.583 261.271L251.853 261.278C256.157 261.281 260.482 261.425 264.782 261.271L290.95 261.28C295.442 261.286 299.99 261.534 304.472 261.271C305.425 261.391 306.356 261.604 307.282 261.271C310.711 260.693 315.297 260.813 318.743 261.271L318.743 261.271L327.725 261.271C330.905 261.177 334.079 260.888 337.26 260.777C339.205 261.924 347.234 261.295 349.705 261.271C349.504 258.302 349.454 255.416 349.705 252.447ZM155.263 260.777L155.263 362.639C161.497 366.21 163.716 367.723 171.132 367.745C231.254 367.923 264.814 317.674 264.782 261.271C260.482 261.425 256.157 261.281 251.853 261.278L208.583 261.271C206.029 261.269 199.944 262.076 197.849 260.777C194.967 260.874 192.108 260.849 189.226 260.777L182.504 260.777C179.651 260.873 176.799 260.814 173.946 260.777L173.946 260.777C171.682 260.909 169.339 260.823 167.072 260.777C165.663 261.807 157.215 261.15 155.263 260.777Z"/>
	<path fill="#F79A3A" transform="scale(2.01355 2.01355)" d="M242.912 375.493C245.55 375.369 257.065 373.891 255.077 379.59C254.737 380.563 253.944 381.025 253.068 381.446C249.782 381.36 244.59 382.033 241.663 380.587C239.049 379.296 240.776 376.148 242.912 375.493Z"/>
	<path fill="#F79A3A" transform="scale(2.01355 2.01355)" d="M167.993 375.994C171.551 375.963 178.706 375.379 181.833 376.353C184.733 377.257 184.446 379.947 181.852 380.817C177.706 380.931 172.883 381.276 168.794 380.725C165.544 380.287 164.985 377.6 167.993 375.994Z"/>
	<path fill="#F79A3A" transform="scale(2.01355 2.01355)" d="M195.926 375.493C198.365 375.47 210.836 374.062 207.633 379.88C207.102 380.844 206.247 381.128 205.252 381.446C202.454 381.514 198.186 382.206 195.595 381.203C192.048 379.829 192.6 376.444 195.926 375.493Z"/>
	<path fill="#F79A3A" transform="scale(2.01355 2.01355)" d="M220.283 375.493C234.256 373.649 233.919 381.059 228.035 381.446C225.172 381.494 220.103 382.159 217.68 380.604C214.312 378.443 217.114 375.839 220.283 375.493Z"/>
	<path fill="#F79A3A" transform="scale(2.01355 2.01355)" d="M266.616 375.493C268.957 375.459 282.999 373.792 281.5 378.863C281.207 379.857 280.614 380.336 279.739 380.817L279.584 380.837C258.577 383.753 264.95 376.391 266.616 375.493Z"/>
	<path fill="#B76720" transform="scale(2.01355 2.01355)" d="M304.472 345.487L315.024 345.487C314.883 354.624 315.036 363.777 315.034 372.916C315.032 383.231 316.463 388.962 309.868 397.47C306.132 397.297 302.458 397.253 298.72 397.47C307.128 390.339 304.507 386.044 304.484 375.302L304.472 345.487Z"/>
	<path fill="#FDE457" transform="scale(2.01355 2.01355)" d="M349.705 252.447C349.742 264.937 349.393 277.509 349.705 289.989C350.904 290.203 352.205 290.846 353.379 290.88C353.988 292.108 353.945 293.741 353.379 294.979L353.379 303.284C355.924 303.233 358.977 302.894 361.487 303.284C362.465 304.86 364.028 306.364 364.379 308.228C364.968 311.353 364.724 338.529 363.957 341.596C362.583 347.096 353.808 345.966 349.705 345.487C338.394 345.493 326.957 345.095 315.662 345.487L315.024 345.487L304.472 345.487C298.724 344.833 288.311 347.523 286.742 338.419C286.166 335.072 286.145 312.22 286.708 308.946C287.154 306.35 289.284 304.682 291.33 303.284C292.659 303.38 293.978 303.326 295.308 303.284C294.222 303.24 293.126 303.278 292.039 303.284C292.021 299.717 291.954 296.142 292.039 292.576C295.373 289.031 300.076 289.9 304.472 289.989C304.128 286.591 304.431 283.185 304.453 279.777L304.472 261.271C305.425 261.391 306.356 261.604 307.282 261.271C310.711 260.693 315.297 260.813 318.743 261.271L318.743 261.271L327.725 261.271C330.905 261.177 334.079 260.888 337.26 260.777C339.205 261.924 347.234 261.295 349.705 261.271C349.504 258.302 349.454 255.416 349.705 252.447Z"/>
	<path fill="#019CF4" transform="scale(2.01355 2.01355)" d="M307.282 325.868C315.027 325.876 322.775 325.779 330.519 325.868C330.616 327.844 330.545 329.834 330.519 331.812C328.776 331.909 327.015 331.839 325.269 331.812L300.469 331.812L300.469 325.868L307.282 325.868Z"/>
	<path fill="#019CF4" transform="scale(2.01355 2.01355)" d="M300.469 314.222L330.519 314.222L330.519 320.234C320.519 320.415 310.473 320.237 300.469 320.234C300.339 318.225 300.406 316.232 300.469 314.222Z"/>
	<path fill="#F8BC30" transform="scale(2.01355 2.01355)" d="M353.379 303.284C355.924 303.233 358.977 302.894 361.487 303.284C362.465 304.86 364.028 306.364 364.379 308.228C364.968 311.353 364.724 338.529 363.957 341.596C362.583 347.096 353.808 345.966 349.705 345.487C338.394 345.493 326.957 345.095 315.662 345.487C340.313 339.664 346.872 325.611 349.705 303.284C344.47 303.245 338.896 303.801 333.711 303.284C339.277 303.264 345.217 302.828 350.74 303.284C351.64 303.344 352.482 303.399 353.379 303.284Z"/>
	<path fill="#C77737" transform="scale(2.01355 2.01355)" d="M349.705 252.447C349.742 264.937 349.393 277.509 349.705 289.989C350.904 290.203 352.205 290.846 353.379 290.88C353.988 292.108 353.945 293.741 353.379 294.979L353.379 303.284C352.482 303.399 351.64 303.344 350.74 303.284C345.217 302.828 339.277 303.264 333.711 303.284C329.507 303.123 325.227 303.282 321.015 303.282L295.308 303.284C294.222 303.24 293.126 303.278 292.039 303.284C292.021 299.717 291.954 296.142 292.039 292.576C295.373 289.031 300.076 289.9 304.472 289.989C304.128 286.591 304.431 283.185 304.453 279.777L304.472 261.271C305.425 261.391 306.356 261.604 307.282 261.271C310.711 260.693 315.297 260.813 318.743 261.271L318.743 261.271L327.725 261.271C330.905 261.177 334.079 260.888 337.26 260.777C339.205 261.924 347.234 261.295 349.705 261.271C349.504 258.302 349.454 255.416 349.705 252.447Z"/>
	<path fill="#B76720" transform="scale(2.01355 2.01355)" d="M307.282 261.271C310.711 260.693 315.297 260.813 318.743 261.271C317.556 261.292 316.412 261.251 315.271 261.623C314.092 267.935 315.168 282.85 315.024 289.989L304.472 289.989C304.128 286.591 304.431 283.185 304.453 279.777L304.472 261.271C305.425 261.391 306.356 261.604 307.282 261.271Z"/>
	<path fill="#665363" transform="scale(2.01355 2.01355)" d="M349.705 289.989C350.904 290.203 352.205 290.846 353.379 290.88C353.988 292.108 353.945 293.741 353.379 294.979L353.379 303.284C352.482 303.399 351.64 303.344 350.74 303.284C345.217 302.828 339.277 303.264 333.711 303.284C329.507 303.123 325.227 303.282 321.015 303.282L295.308 303.284C294.222 303.24 293.126 303.278 292.039 303.284C292.021 299.717 291.954 296.142 292.039 292.576C295.373 289.031 300.076 289.9 304.472 289.989L315.024 289.989C326.581 289.999 338.15 290.117 349.705 289.989Z"/>
	<path fill="#77C5F9" transform="scale(2.01355 2.01355)" d="M350.74 303.284C350.704 298.57 348.931 294.899 353.379 294.979L353.379 303.284C352.482 303.399 351.64 303.344 350.74 303.284Z"/>
	<path fill="#FEFEFE" transform="scale(2.01355 2.01355)" d="M300.469 290.88L303.208 290.88L303.208 301.304C298.372 301.503 300.434 295.722 300.469 290.88Z"/>
	<path fill="#DA9451" transform="scale(2.01355 2.01355)" d="M155.263 260.777C157.215 261.15 165.663 261.807 167.072 260.777C169.339 260.823 171.682 260.909 173.946 260.777L173.946 260.777C176.799 260.814 179.651 260.873 182.504 260.777L189.226 260.777C192.108 260.849 194.967 260.874 197.849 260.777C199.944 262.076 206.029 261.269 208.583 261.271L251.853 261.278C256.157 261.281 260.482 261.425 264.782 261.271C264.814 317.674 231.254 367.923 171.132 367.745C163.716 367.723 161.497 366.21 155.263 362.639L155.263 260.777ZM172.699 298.616C170.996 300.773 168.512 314.54 174.294 314.222C175.991 313.21 178.92 299.666 172.699 298.616ZM172.699 345.487C170.98 346.944 167.899 360.031 174.294 359.95C175.818 359.389 179.326 345.415 172.699 345.487ZM172.699 322.611C171.492 324.294 168.266 337.992 174.294 338.01C176.006 337.342 179.166 323.783 172.699 322.611Z"/>
	<path fill="#F79A3A" transform="scale(2.01355 2.01355)" d="M182.504 260.777L189.226 260.777C189.077 266.815 190.738 282.709 187.013 287.012C182.682 292.014 175.617 288.435 174.329 282.838C173.315 278.43 173.93 265.859 173.946 260.777C176.799 260.814 179.651 260.873 182.504 260.777Z"/>
	<path fill="#F79A3A" transform="scale(2.01355 2.01355)" d="M163.503 265.277C171.27 264.793 168.004 276.212 167.997 282.893L168.009 349.737C168.012 354.396 169.148 359.676 164.785 362.639C158.35 363.594 160.21 350.425 160.211 346.822L160.218 268.44C161.146 266.915 161.952 266.177 163.503 265.277Z"/>
</svg>
